<?xml version="1.0" encoding="UTF-8" standalone="no"?>
<!-- Created with Inkscape (http://www.inkscape.org/) -->

<svg
   xmlns:dc="http://purl.org/dc/elements/1.1/"
   xmlns:cc="http://creativecommons.org/ns#"
   xmlns:rdf="http://www.w3.org/1999/02/22-rdf-syntax-ns#"
   xmlns:svg="http://www.w3.org/2000/svg"
   xmlns="http://www.w3.org/2000/svg"
   xmlns:xlink="http://www.w3.org/1999/xlink"
   xmlns:sodipodi="http://sodipodi.sourceforge.net/DTD/sodipodi-0.dtd"
   xmlns:inkscape="http://www.inkscape.org/namespaces/inkscape"
   width="210mm"
   height="297mm"
   viewBox="0 0 210 297"
   version="1.1"
   id="svg8"
   inkscape:version="0.92.2 5c3e80d, 2017-08-06"
   sodipodi:docname="background2.svg">
  <sodipodi:namedview
     id="base"
     pagecolor="#ffffff"
     bordercolor="#666666"
     borderopacity="1.0"
     inkscape:pageopacity="0.0"
     inkscape:pageshadow="2"
     inkscape:zoom="0.35"
     inkscape:cx="-114.28571"
     inkscape:cy="560"
     inkscape:document-units="px"
     inkscape:current-layer="layer1"
     showgrid="false"
     showborder="false"
     inkscape:window-width="870"
     inkscape:window-height="558"
     inkscape:window-x="151"
     inkscape:window-y="39"
     inkscape:window-maximized="0" />
  <defs
     id="defs2">
    <linearGradient
       inkscape:collect="always"
       id="linearGradient1426">
      <stop
         style="stop-color:#87cdde;stop-opacity:1"
         offset="0"
         id="stop1422" />
      <stop
         style="stop-color:#0044aa;stop-opacity:1"
         offset="1"
         id="stop1424" />
    </linearGradient>
    <inkscape:path-effect
       is_visible="true"
       id="path-effect829"
       effect="spiro" />
    <inkscape:path-effect
       is_visible="true"
       id="path-effect821"
       effect="spiro" />
    <inkscape:path-effect
       is_visible="true"
       id="path-effect817"
       effect="spiro" />
    <linearGradient
       inkscape:collect="always"
       xlink:href="#linearGradient1426"
       id="linearGradient1428"
       x1="-118.19023"
       y1="180.32517"
       x2="282.80872"
       y2="180.32517"
       gradientUnits="userSpaceOnUse" />
  </defs>
  <metadata
     id="metadata5">
    <rdf:RDF>
      <cc:Work
         rdf:about="">
        <dc:format>image/svg+xml</dc:format>
        <dc:type
           rdf:resource="http://purl.org/dc/dcmitype/StillImage" />
        <dc:title></dc:title>
      </cc:Work>
    </rdf:RDF>
  </metadata>
  <g
     id="layer1"
     inkscape:groupmode="layer"
     inkscape:label="Layer 1">
    <g
       id="g1420"
       transform="translate(-105.07738,-81.642857)"
       style="fill:url(#linearGradient1428);fill-opacity:1"
       inkscape:export-xdpi="96"
       inkscape:export-ydpi="96">
      <path
         inkscape:connector-curvature="0"
         id="path1302"
         d="m -112.17569,132.84012 c -1.78952,0.0727 -3.47461,0.31257 -5.0332,0.7461 l 0.0723,0.25586 c 3.07079,-0.85415 6.65882,-0.94826 10.5918,-0.48243 3.37518,0.40013 6.995867,1.20318 10.652338,2.32813 3.659223,1.12549 7.350457,2.57521 10.865235,4.33203 0.617703,0.30872 1.230444,0.62729 1.835937,0.95508 6.278518,3.39929 11.773876,7.65325 17.179688,11.65625 0.299498,0.22175 0.597238,0.44202 0.896484,0.66211 5.623356,4.13617 11.400165,8.07357 18.189453,10.4375 0.09328,0.0325 0.187567,0.0638 0.28125,0.0957 7.090836,2.41364 14.994206,2.91739 22.796876,2.49609 1.310069,-0.0707 2.616601,-0.16695 3.914062,-0.28711 6.292877,-0.58364 12.4241183,-1.68453 18.4042973,-2.95312 2.595512,-0.54974 5.16328,-1.13127 7.710937,-1.71485 4.5264277,-1.03799 9.0136207,-2.08955 13.5351567,-2.99609 3.882694,-0.78211 7.799475,-1.45281 11.791015,-1.91406 8.645807,-0.99061 17.740924,-0.96926 26.550781,1.11719 1.949198,0.46161 3.862187,1.01911 5.746094,1.64843 9.272132,3.09565 17.680222,7.93249 25.742192,12.59961 4.79025,2.78034 9.59467,5.57248 14.582034,7.99414 5.08862,2.47697 10.40106,4.5648 16.125,5.85352 9.39398,2.10482 19.32878,1.87343 29.17187,0.9375 3.95926,-0.37498 7.88313,-0.8633 11.73438,-1.39649 12.76634,-1.78225 25.16713,-4.04423 37.82031,-4.18554 0.6372,-0.007 1.27486,-0.008 1.91406,-0.004 15.91554,0.10663 32.18359,4.13133 47.38086,10.28515 12.83612,5.19774 24.8103,11.85693 34.36719,19.61719 l 0.16601,-0.20508 c -9.58334,-7.78174 -21.57767,-14.4505 -34.43359,-19.65625 -15.22095,-6.16341 -31.51958,-10.19776 -47.47852,-10.30469 -0.64079,-0.004 -1.27924,-0.003 -1.91796,0.004 -12.68276,0.14164 -25.0943,2.40625 -37.85352,4.1875 -3.84881,0.53285 -7.77049,1.02005 -11.72461,1.39454 -9.83044,0.93472 -19.73873,1.16162 -29.08984,-0.9336 -5.69843,-1.28297 -10.99035,-3.36117 -16.06641,-5.83203 -4.975544,-2.41593 -9.774124,-5.20399 -14.564454,-7.98437 -8.06238,-4.66737 -16.48593,-9.5164 -25.791018,-12.62305 -1.89055,-0.63154 -3.811751,-1.1887 -5.769531,-1.65235 -8.84916,-2.09575 -17.97352,-2.11804 -26.640625,-1.125 -4.001026,0.46235 -7.924784,1.13485 -11.8125,1.91797 -4.527114,0.90767 -9.01735,1.96025 -13.5429677,2.99805 -2.547225,0.58348 -5.11391,1.16561 -7.707032,1.71484 -5.974651,1.26742 -12.0968423,2.36499 -18.3750003,2.94727 -1.294192,0.11985 -2.595777,0.21661 -3.902343,0.28711 -7.781715,0.42017 -15.652608,-0.0845 -22.697266,-2.48242 -0.09308,-0.0317 -0.186594,-0.0634 -0.279297,-0.0957 -6.747134,-2.34925 -12.500919,-6.26799 -18.119141,-10.40039 -0.298971,-0.21989 -0.599119,-0.44049 -0.898437,-0.66211 -5.402672,-4.00067 -10.908006,-8.26327 -17.210938,-11.67578 -0.608097,-0.3292 -1.22158,-0.64902 -1.841796,-0.95899 -3.528991,-1.76392 -7.233825,-3.21811 -10.90625,-4.34765 -3.669525,-1.12897 -7.304864,-1.93745 -10.699214,-2.33985 -1.97788,-0.23426 -3.87259,-0.32861 -5.66211,-0.25586 z"
         style="color:#000000;font-style:normal;font-variant:normal;font-weight:normal;font-stretch:normal;font-size:medium;line-height:normal;font-family:sans-serif;font-variant-ligatures:normal;font-variant-position:normal;font-variant-caps:normal;font-variant-numeric:normal;font-variant-alternates:normal;font-feature-settings:normal;text-indent:0;text-align:start;text-decoration:none;text-decoration-line:none;text-decoration-style:solid;text-decoration-color:#000000;letter-spacing:normal;word-spacing:normal;text-transform:none;writing-mode:lr-tb;direction:ltr;text-orientation:mixed;dominant-baseline:auto;baseline-shift:baseline;text-anchor:start;white-space:normal;shape-padding:0;clip-rule:nonzero;display:inline;overflow:visible;visibility:visible;opacity:1;isolation:auto;mix-blend-mode:normal;color-interpolation:sRGB;color-interpolation-filters:linearRGB;solid-color:#000000;solid-opacity:1;vector-effect:none;fill:url(#linearGradient1428);fill-opacity:1;fill-rule:nonzero;stroke:none;stroke-width:0.26458332;stroke-linecap:butt;stroke-linejoin:miter;stroke-miterlimit:4;stroke-dasharray:none;stroke-dashoffset:0;stroke-opacity:1;color-rendering:auto;image-rendering:auto;shape-rendering:auto;text-rendering:auto;enable-background:accumulate" />
      <path
         inkscape:connector-curvature="0"
         id="path1304"
         d="m -117.16397,133.58231 -0.0176,0.26367 c 1.97348,0.12347 4.68915,1.0295 8.02148,2.32422 2.85994,1.11185 6.16377,2.49195 9.644536,3.98242 3.482879,1.49087 7.136044,3.09584 10.703125,4.79493 0.627187,0.29869 1.251142,0.59963 1.871093,0.90429 6.42645,3.15884 12.352222,6.5168 18.123047,9.43555 0.319742,0.16168 0.639781,0.32146 0.958985,0.48047 5.997685,2.9883 12.06081,5.58899 18.947265,7 0.09465,0.0194 0.188235,0.0377 0.283203,0.0566 7.186864,1.43377 15.068772,1.41743 22.898438,1.08593 1.31551,-0.0556 2.627882,-0.12139 3.931641,-0.19335 6.31881,-0.35017 12.4839533,-0.85534 18.4570313,-1.35743 2.593768,-0.21665 5.15294,-0.43213 7.6875,-0.63281 4.501711,-0.35828 8.9458037,-0.67296 13.4082027,-0.86328 3.827406,-0.16915 7.68497,-0.2398 11.615234,-0.16211 8.525198,0.1823 17.463885,1.07955 26.300781,3.21875 1.954644,0.47315 3.887193,1.00247 5.802735,1.56641 9.436203,2.77533 18.183983,6.34622 26.615233,9.54687 5.00153,1.90971 10.00026,3.74745 15.12305,5.2832 5.21984,1.57441 10.63138,2.82585 16.38476,3.50782 h 0.002 c 9.46198,1.10537 19.38881,0.53268 29.27148,-0.0586 3.98374,-0.23598 7.92043,-0.47342 11.78125,-0.67969 12.76331,-0.70553 25.04951,-1.0686 37.41602,0.28906 0.62277,0.0684 1.24655,0.14293 1.87109,0.22071 15.55318,1.93947 31.44458,7.08907 46.9082,12.69921 13.06121,4.73857 25.62043,9.6888 35.82227,14.64454 l 0.11523,-0.23633 c -10.21631,-4.96277 -22.78202,-9.91609 -35.84765,-14.65625 -15.46944,-5.61225 -31.37852,-10.771 -46.9668,-12.71485 -0.62582,-0.0779 -1.24902,-0.15021 -1.87305,-0.21875 -12.39047,-1.36029 -24.69131,-0.99679 -37.45898,-0.29101 -3.8621,0.20634 -7.7997,0.44373 -11.7832,0.67969 -9.88227,0.59125 -19.79623,1.16221 -29.22657,0.0606 -5.73505,-0.6798 -11.13127,-1.929 -16.33984,-3.5 -5.11253,-1.53268 -10.10404,-3.36647 -15.10352,-5.2754 -8.42749,-3.19919 -17.18342,-6.77433 -26.636714,-9.55468 -1.918803,-0.5649 -3.854753,-1.09399 -5.814454,-1.56836 -8.860095,-2.14482 -17.817619,-3.04395 -26.357421,-3.22656 -3.936848,-0.0778 -7.800809,-0.007 -11.632813,0.1621 -4.467327,0.19053 -8.9147397,0.50488 -13.4179687,0.86329 -2.535506,0.20075 -5.093905,0.41616 -7.6875,0.63281 h -0.002 c -5.972692,0.50205 -12.1349493,1.00751 -18.4492183,1.35742 -1.302654,0.0719 -2.613393,0.13584 -3.927735,0.19141 -7.822538,0.33119 -15.683944,0.34634 -22.833984,-1.08008 -0.09452,-0.0188 -0.189014,-0.0374 -0.283203,-0.0566 -6.853755,-1.40431 -12.894003,-3.99269 -18.882813,-6.97656 -0.318692,-0.15876 -0.637725,-0.31901 -0.957031,-0.48047 -5.763013,-2.9148 -11.689751,-6.27239 -18.125,-9.43555 -0.621011,-0.30519 -1.246916,-0.60713 -1.875,-0.90625 -3.571993,-1.70143 -7.228386,-3.30922 -10.712891,-4.80078 -3.482104,-1.49105 -6.787604,-2.87065 -9.652344,-3.98438 -3.33858,-1.29714 -6.06137,-2.21428 -8.09961,-2.34179 z"
         style="color:#000000;font-style:normal;font-variant:normal;font-weight:normal;font-stretch:normal;font-size:medium;line-height:normal;font-family:sans-serif;font-variant-ligatures:normal;font-variant-position:normal;font-variant-caps:normal;font-variant-numeric:normal;font-variant-alternates:normal;font-feature-settings:normal;text-indent:0;text-align:start;text-decoration:none;text-decoration-line:none;text-decoration-style:solid;text-decoration-color:#000000;letter-spacing:normal;word-spacing:normal;text-transform:none;writing-mode:lr-tb;direction:ltr;text-orientation:mixed;dominant-baseline:auto;baseline-shift:baseline;text-anchor:start;white-space:normal;shape-padding:0;clip-rule:nonzero;display:inline;overflow:visible;visibility:visible;opacity:1;isolation:auto;mix-blend-mode:normal;color-interpolation:sRGB;color-interpolation-filters:linearRGB;solid-color:#000000;solid-opacity:1;vector-effect:none;fill:url(#linearGradient1428);fill-opacity:1;fill-rule:nonzero;stroke:none;stroke-width:0.26458332;stroke-linecap:butt;stroke-linejoin:miter;stroke-miterlimit:4;stroke-dasharray:none;stroke-dashoffset:0;stroke-opacity:1;color-rendering:auto;image-rendering:auto;shape-rendering:auto;text-rendering:auto;enable-background:accumulate" />
      <path
         inkscape:connector-curvature="0"
         id="path1306"
         d="m -117.07022,133.62919 -0.20508,0.16992 c 0.92536,1.12081 2.76574,3.03923 5.5,5.16992 2.34669,1.8296 5.32992,3.78912 8.63477,5.64648 3.306328,1.85759 6.923529,3.6186 10.542966,5.25977 0.636683,0.28863 1.271807,0.57398 1.90625,0.85547 6.574702,2.91775 12.933666,5.37515 19.070313,7.20898 0.340024,0.10158 0.678389,0.20093 1.017578,0.29883 6.37269,1.8399 12.720513,3.10307 19.703125,3.5625 0.09603,0.006 0.192826,0.0135 0.289062,0.0195 7.28155,0.45519 15.141334,-0.0824 22.998048,-0.32422 1.320959,-0.0406 2.639162,-0.0719 3.949218,-0.0957 6.344731,-0.11707 12.54218,-0.0274 18.5078133,0.23633 2.591887,0.11613 5.142675,0.26332 7.664062,0.44531 h 0.002 c 4.476828,0.32106 8.8739677,0.74352 13.2773437,1.26953 h 0.002 c 3.772292,0.44389 7.572233,0.97475 11.441406,1.5918 8.404942,1.35616 17.186921,3.13025 26.050782,5.32227 1.960075,0.4847 3.910225,0.98594 5.857421,1.48437 9.601693,2.45477 18.692208,4.75651 27.494138,6.49024 5.21313,1.03876 10.40624,1.92214 15.664074,2.57226 5.35049,0.67205 10.86005,1.09003 16.64257,1.16602 h 0.002 c 9.52926,0.10712 19.44885,-0.80569 29.37109,-1.05274 4.00822,-0.0971 7.95779,-0.0871 11.82813,0.0332 12.76004,0.37021 24.92979,1.90639 37.00976,4.76368 0.60838,0.14392 1.21823,0.29198 1.82813,0.44336 15.19137,3.77334 30.7054,10.04946 46.43554,15.11523 13.28648,4.27881 26.43418,7.52145 37.28711,9.66992 l 0.0508,-0.25976 c -10.84312,-2.14653 -23.98074,-5.38696 -37.25586,-9.66211 -15.71775,-5.06179 -31.23604,-11.33941 -46.45312,-15.11914 -0.61083,-0.15161 -1.22076,-0.29921 -1.83008,-0.44336 -12.09803,-2.86156 -24.28807,-4.4008 -37.06445,-4.77149 -3.87542,-0.12048 -7.82888,-0.13241 -11.8418,-0.0352 -9.93407,0.24734 -19.85301,1.1616 -29.36328,1.05469 -5.77199,-0.0759 -11.27358,-0.49312 -16.61523,-1.16406 -5.249944,-0.64915 -10.436264,-1.53057 -15.644544,-2.56836 -8.792394,-1.73181 -17.877332,-4.0336 -27.478665,-6.48828 -1.947035,-0.49839 -3.899696,-0.99929 -5.861328,-1.48437 -8.871106,-2.19382 -17.658167,-3.96885 -26.070313,-5.32618 -3.872481,-0.61757 -7.678958,-1.14942 -11.455078,-1.59375 -4.407422,-0.52649 -8.8100107,-0.95012 -13.2910157,-1.27148 -2.523863,-0.18218 -5.077668,-0.33103 -7.671875,-0.44727 -5.9710733,-0.26398 -12.1749943,-0.3535 -18.5253903,-0.23632 -1.311115,0.0239 -2.629064,0.0571 -3.951172,0.0977 -7.863312,0.24205 -15.717845,0.77785 -22.974609,0.32421 -0.09598,-0.006 -0.191461,-0.0132 -0.28711,-0.0195 -6.961388,-0.45803 -13.287762,-1.71686 -19.646484,-3.55273 -0.338385,-0.0977 -0.678322,-0.19748 -1.017578,-0.29883 -6.122545,-1.82961 -12.469863,-4.28282 -19.03711,-7.19726 -0.63389,-0.28125 -1.268355,-0.56522 -1.904297,-0.85352 -3.614938,-1.63913 -7.224694,-3.39778 -10.521481,-5.25 -3.29489,-1.85177 -6.2704,-3.80597 -8.60352,-5.625 -2.71885,-2.11868 -4.54692,-4.02851 -5.45703,-5.13086 z"
         style="color:#000000;font-style:normal;font-variant:normal;font-weight:normal;font-stretch:normal;font-size:medium;line-height:normal;font-family:sans-serif;font-variant-ligatures:normal;font-variant-position:normal;font-variant-caps:normal;font-variant-numeric:normal;font-variant-alternates:normal;font-feature-settings:normal;text-indent:0;text-align:start;text-decoration:none;text-decoration-line:none;text-decoration-style:solid;text-decoration-color:#000000;letter-spacing:normal;word-spacing:normal;text-transform:none;writing-mode:lr-tb;direction:ltr;text-orientation:mixed;dominant-baseline:auto;baseline-shift:baseline;text-anchor:start;white-space:normal;shape-padding:0;clip-rule:nonzero;display:inline;overflow:visible;visibility:visible;opacity:1;isolation:auto;mix-blend-mode:normal;color-interpolation:sRGB;color-interpolation-filters:linearRGB;solid-color:#000000;solid-opacity:1;vector-effect:none;fill:url(#linearGradient1428);fill-opacity:1;fill-rule:nonzero;stroke:none;stroke-width:0.26458332;stroke-linecap:butt;stroke-linejoin:miter;stroke-miterlimit:4;stroke-dasharray:none;stroke-dashoffset:0;stroke-opacity:1;color-rendering:auto;image-rendering:auto;shape-rendering:auto;text-rendering:auto;enable-background:accumulate" />
      <path
         inkscape:connector-curvature="0"
         id="path1308"
         d="m -117.30459,133.7034 c -0.17441,2.14708 0.79108,5.08684 2.92187,8.0586 1.82872,2.55154 4.49101,5.08909 7.61914,7.31445 3.12899,2.2254 6.70903,4.14351 10.38086,5.72656 0.646184,0.27854 1.294401,0.54645 1.94336,0.80469 6.723156,2.67599 13.513036,4.23262 20.015624,4.98047 0.360308,0.0414 0.718957,0.0805 1.078126,0.11719 6.747827,0.69067 13.380297,0.61943 20.458984,0.1289 0.09727,-0.007 0.195394,-0.0146 0.292969,-0.0215 7.375821,-0.5217 15.213836,-1.57615 23.097656,-1.72851 1.326418,-0.0256 2.648476,-0.0261 3.964844,-0.002 6.370697,0.11565 12.604244,0.79928 18.5625003,1.82812 2.590045,0.44861 5.132338,0.96093 7.640625,1.52539 4.452035,1.00001 8.807966,2.15986 13.1523427,3.40235 3.717272,1.05706 7.459576,2.18886 11.267579,3.3457 8.284437,2.53098 16.910031,5.18283 25.800781,7.42773 1.965495,0.49627 3.93521,0.96956 5.914062,1.40235 9.766623,2.1334 19.197299,3.16589 28.369139,3.43164 5.42476,0.16736 10.81232,0.0964 16.205078,-0.13867 5.48084,-0.22984 11.09062,-0.64661 16.90234,-1.17578 9.59643,-0.88977 19.51077,-2.14364 29.47266,-2.04688 4.0327,0.0415 7.99506,0.30144 11.875,0.74805 12.7569,1.44496 24.81224,4.87878 36.60547,9.23633 0.59397,0.2195 1.18796,0.44296 1.7832,0.66796 14.82956,5.60834 29.96811,13.01251 45.96485,17.5332 13.51185,3.81847 27.24526,5.34887 38.75,4.6836 l -0.0156,-0.26367 c -11.46925,0.66322 -25.17956,-0.86505 -38.66406,-4.67579 -15.966,-4.512 -31.09552,-11.91087 -45.94141,-17.52538 -0.59583,-0.22523 -1.19055,-0.44824 -1.78515,-0.66797 -11.80582,-4.3622 -23.88301,-7.80381 -36.66797,-9.25195 -3.88866,-0.44762 -7.85809,-0.70839 -11.90039,-0.75 -9.98581,-0.097 -19.90969,1.15962 -29.5,2.04882 -5.80888,0.52892 -11.41559,0.94424 -16.89063,1.17383 -5.387418,0.23483 -10.768498,0.30775 -16.185548,0.14063 -9.15727,-0.26532 -18.571,-1.29616 -28.320308,-3.42578 -1.975268,-0.43201 -3.94267,-0.90461 -5.90625,-1.40039 -8.882218,-2.24271 -17.502401,-4.89272 -25.78714,-7.42379 -3.808197,-1.1569 -7.553297,-2.28978 -11.273437,-3.34766 -4.3474957,-1.24338 -8.7073247,-2.40474 -13.1660157,-3.40625 -2.512147,-0.56532 -5.059518,-1.07987 -7.654297,-1.52929 -5.9693883,-1.03077 -12.2150883,-1.71414 -18.6015623,-1.83008 -1.319562,-0.0242 -2.646697,-0.0256 -3.976562,0 -7.904028,0.15276 -15.747426,1.20961 -23.111329,1.73047 -0.09737,0.007 -0.193748,0.0147 -0.291015,0.0215 -7.069104,0.48986 -13.68556,0.56174 -20.414063,-0.12696 -0.358081,-0.0366 -0.716969,-0.0759 -1.076172,-0.11718 -6.481957,-0.74548 -13.248226,-2.29846 -19.947265,-4.96485 -0.646746,-0.25736 -1.293708,-0.52327 -1.9375,-0.80078 -3.657848,-1.57702 -7.220206,-3.48742 -10.330076,-5.69922 -3.10847,-2.21138 -5.75238,-4.73376 -7.5586,-7.2539 -2.10451,-2.93511 -3.03943,-5.83454 -2.87304,-7.88282 z"
         style="color:#000000;font-style:normal;font-variant:normal;font-weight:normal;font-stretch:normal;font-size:medium;line-height:normal;font-family:sans-serif;font-variant-ligatures:normal;font-variant-position:normal;font-variant-caps:normal;font-variant-numeric:normal;font-variant-alternates:normal;font-feature-settings:normal;text-indent:0;text-align:start;text-decoration:none;text-decoration-line:none;text-decoration-style:solid;text-decoration-color:#000000;letter-spacing:normal;word-spacing:normal;text-transform:none;writing-mode:lr-tb;direction:ltr;text-orientation:mixed;dominant-baseline:auto;baseline-shift:baseline;text-anchor:start;white-space:normal;shape-padding:0;clip-rule:nonzero;display:inline;overflow:visible;visibility:visible;opacity:1;isolation:auto;mix-blend-mode:normal;color-interpolation:sRGB;color-interpolation-filters:linearRGB;solid-color:#000000;solid-opacity:1;vector-effect:none;fill:url(#linearGradient1428);fill-opacity:1;fill-rule:nonzero;stroke:none;stroke-width:0.26458332;stroke-linecap:butt;stroke-linejoin:miter;stroke-miterlimit:4;stroke-dasharray:none;stroke-dashoffset:0;stroke-opacity:1;color-rendering:auto;image-rendering:auto;shape-rendering:auto;text-rendering:auto;enable-background:accumulate" />
      <path
         inkscape:connector-curvature="0"
         id="path1310"
         d="m -117.29483,133.66434 c -1.27394,3.12156 -1.20548,7.0765 0.31445,10.88672 1.30451,3.27112 3.64553,6.39233 6.59571,8.98633 2.95043,2.59384 6.49254,4.66862 10.21679,6.19336 0.655694,0.26841 1.315035,0.52093 1.97852,0.75586 6.871695,2.43353 14.093061,3.08707 20.960937,2.74804 0.380548,-0.0188 0.761512,-0.0419 1.140625,-0.0664 7.122452,-0.45927 14.037327,-1.86561 21.212891,-3.30468 0.09868,-0.0198 0.198049,-0.0388 0.296875,-0.0586 7.47066,-1.49699 15.288227,-3.07173 23.199219,-3.13477 1.331888,-0.0106 2.659717,0.0216 3.982421,0.0937 6.396772,0.34802 12.663908,1.62463 18.6152353,3.41797 2.588401,0.78083 5.12376,1.65869 7.61914,2.60547 4.427554,1.6787 8.738124,3.57412 13.0234377,5.5332 3.662242,1.67039 7.347223,3.40462 11.09375,5.10156 8.163201,3.70648 16.631263,7.23731 25.548828,9.53516 1.970901,0.50784 3.960217,0.95329 5.970703,1.32031 9.931522,1.81142 19.70318,1.57198 29.24414,0.36914 5.63612,-0.70442 11.21821,-1.72975 16.746088,-2.84961 5.61125,-1.13121 11.32077,-2.38005 17.16211,-3.51367 9.66408,-1.88542 19.57254,-3.48117 29.57422,-3.04101 4.05722,0.18001 8.03019,0.6883 11.91992,1.46093 12.75424,2.51882 24.69715,7.85268 36.20313,13.71094 0.57956,0.2951 1.15965,0.59195 1.74023,0.89063 14.46721,7.44424 29.225,15.97625 45.48829,19.95117 13.73725,3.35753 28.05773,3.17663 40.20898,-0.30664 l -0.0723,-0.25586 c -12.10063,3.46876 -26.38031,3.65162 -40.07421,0.30469 -16.2143,-3.96294 -30.95446,-12.48132 -45.42969,-19.92969 -0.58088,-0.29882 -1.16227,-0.59534 -1.74219,-0.89063 -11.51408,-5.86238 -23.47842,-11.20789 -36.27148,-13.73437 -3.90171,-0.77501 -7.88733,-1.28615 -11.95899,-1.4668 -10.0374,-0.44173 -19.96684,1.16033 -29.63672,3.04688 -5.84535,1.13439 -11.5557,2.38304 -17.16406,3.51367 -5.524708,1.11921 -11.100458,2.14253 -16.726558,2.8457 -9.52303,1.20058 -19.266721,1.43995 -29.164035,-0.36523 -2.003518,-0.36575 -3.985631,-0.80995 -5.951172,-1.31641 -8.893347,-2.29161 -17.347797,-5.81538 -25.505859,-9.51953 -3.744218,-1.6959 -7.42958,-3.4303 -11.09375,-5.10156 -4.2876347,-1.96015 -8.6029997,-3.85909 -13.0390627,-5.54102 -2.50024,-0.94862 -5.041566,-1.82846 -7.636719,-2.61133 -5.9666513,-1.79795 -12.2540133,-3.07816 -18.6757813,-3.42773 h -0.002 c -1.327343,-0.0724 -2.661089,-0.10435 -3.998046,-0.0937 -7.944677,0.0633 -15.779527,1.64172 -23.250001,3.13867 -0.09885,0.0198 -0.19818,0.0388 -0.296875,0.0586 -7.176012,1.43916 -14.078938,2.84303 -21.177734,3.30078 -0.377815,0.0244 -0.755572,0.0457 -1.134766,0.0644 -6.842024,0.33776 -14.03058,-0.31339 -20.861328,-2.73242 -0.659591,-0.23355 -1.315159,-0.48324 -1.966793,-0.75 -3.70074,-1.51511 -7.21647,-3.5777 -10.14063,-6.14844 -2.92328,-2.57035 -5.24178,-5.66114 -6.52734,-8.88476 -1.49757,-3.75415 -1.55755,-7.64348 -0.31446,-10.68946 z"
         style="color:#000000;font-style:normal;font-variant:normal;font-weight:normal;font-stretch:normal;font-size:medium;line-height:normal;font-family:sans-serif;font-variant-ligatures:normal;font-variant-position:normal;font-variant-caps:normal;font-variant-numeric:normal;font-variant-alternates:normal;font-feature-settings:normal;text-indent:0;text-align:start;text-decoration:none;text-decoration-line:none;text-decoration-style:solid;text-decoration-color:#000000;letter-spacing:normal;word-spacing:normal;text-transform:none;writing-mode:lr-tb;direction:ltr;text-orientation:mixed;dominant-baseline:auto;baseline-shift:baseline;text-anchor:start;white-space:normal;shape-padding:0;clip-rule:nonzero;display:inline;overflow:visible;visibility:visible;opacity:1;isolation:auto;mix-blend-mode:normal;color-interpolation:sRGB;color-interpolation-filters:linearRGB;solid-color:#000000;solid-opacity:1;vector-effect:none;fill:url(#linearGradient1428);fill-opacity:1;fill-rule:nonzero;stroke:none;stroke-width:0.26458332;stroke-linecap:butt;stroke-linejoin:miter;stroke-miterlimit:4;stroke-dasharray:none;stroke-dashoffset:0;stroke-opacity:1;color-rendering:auto;image-rendering:auto;shape-rendering:auto;text-rendering:auto;enable-background:accumulate" />
      <path
         inkscape:connector-curvature="0"
         id="path1314"
         d="m -117.29874,133.67411 c -1.12146,3.48656 -0.96469,7.78312 0.60157,11.91015 1.34488,3.54318 3.69695,6.91681 6.63867,9.74219 0.079,0.0759 0.15849,0.15149 0.23828,0.22656 2.89261,2.72125 6.31362,4.92671 9.94336,6.54102 3.292961,1.46354 6.724575,2.43709 10.214843,3.00586 4.411201,0.72091 8.932049,0.80261 13.365235,0.39844 2.915666,-0.26499 5.81278,-0.7325 8.707031,-1.35547 4.993779,-1.07576 9.942164,-2.62176 14.886719,-4.16602 1.280657,-0.4 2.565882,-0.8009 3.851562,-1.19336 6.255419,-1.90947 12.56849,-3.62447 18.96875,-4.1914 0.302687,-0.0268 0.607024,-0.0507 0.910157,-0.0723 6.107652,-0.43502 12.18082,0.21488 18.085937,1.69922 1.6242633,0.40842 3.2365843,0.88168 4.8300783,1.4121 4.483793,1.49169 8.832596,3.43915 13.037109,5.75391 2.725178,1.50019 5.3787057,3.14986 7.9746097,4.87109 1.997854,1.32468 3.974335,2.69802 5.935547,4.08204 4.491669,3.17117 8.907141,6.40396 13.412109,9.34375 4.558826,2.96769 9.215482,5.64039 14.152344,7.66992 2.130577,0.87537 4.314049,1.63323 6.560547,2.23633 2.962464,0.79592 5.969639,1.31451 9.021484,1.57421 9.49483,0.81347 19.34875,-0.96722 28.85937,-3.79687 3.28438,-0.97664 6.53044,-2.07498 9.730468,-3.22461 6.02223,-2.16341 12.04895,-4.53015 18.07227,-6.64258 9.41111,-3.29342 18.86601,-5.97666 28.48242,-6.37695 9.41585,-0.40192 18.43934,1.33645 27.31445,4.39844 7.23881,2.49105 14.34163,5.88831 21.24219,9.61132 1.74366,0.94142 3.48673,1.90862 5.23242,2.89258 8.67638,4.89033 17.38334,10.19531 26.22852,14.70508 5.04444,2.5694 10.13597,4.87666 15.30859,6.67968 3.95038,1.38014 7.90287,2.44074 11.77539,3.17579 8.91424,1.69213 17.40395,1.6565 24.58594,-0.23243 l -0.0664,-0.25586 c -7.13317,1.87608 -15.58742,1.91478 -24.47071,0.22852 -3.85911,-0.7325 -7.79992,-1.79009 -11.73828,-3.16602 -5.15734,-1.79769 -10.23608,-4.10021 -15.27344,-6.66601 -8.83296,-4.50354 -17.53702,-9.80587 -26.21875,-14.69922 -1.74676,-0.98456 -3.49287,-1.95217 -5.23828,-2.89453 -6.90811,-3.72708 -14.02279,-7.13304 -21.28125,-9.63086 -8.89824,-3.06996 -17.95661,-4.81376 -27.41211,-4.41015 -9.65827,0.40203 -19.13568,3.09375 -28.55664,6.39062 -6.03012,2.11477 -12.05829,4.48268 -18.07617,6.64453 -3.196888,1.14851 -6.438688,2.24398 -9.716798,3.21875 -9.49182,2.82406 -19.31318,4.59644 -28.759762,3.78711 -3.037421,-0.25837 -6.026967,-0.77446 -8.97461,-1.5664 -2.234481,-0.59987 -4.407966,-1.35304 -6.529297,-2.22461 -4.915406,-2.02071 -9.558709,-4.6841 -14.109375,-7.64648 -4.496871,-2.9345 -8.910148,-6.16692 -13.404297,-9.33985 -1.962336,-1.38481 -3.940414,-2.75918 -5.941406,-4.08593 -2.600196,-1.72408 -5.2587687,-3.37614 -7.9921867,-4.88086 -4.217093,-2.32169 -8.583332,-4.2781 -13.083985,-5.77539 -1.599593,-0.53246 -3.216779,-1.00593 -4.8476563,-1.41602 -5.928977,-1.49033 -12.031212,-2.14426 -18.169922,-1.70703 -0.304674,0.0217 -0.609893,0.0454 -0.914062,0.0723 -6.431743,0.56972 -12.762809,2.29206 -19.023438,4.20312 -1.286711,0.39277 -2.570844,0.79334 -3.851562,1.19336 -4.944543,1.54425 -9.887282,3.08586 -14.865235,4.15821 -2.885371,0.62106 -5.77036,1.08768 -8.673828,1.35156 -4.414411,0.40261 -8.912261,0.3204 -13.298828,-0.39649 -3.470151,-0.56548 -6.87998,-1.53281 -10.150391,-2.98632 -3.604371,-1.60303 -7.002371,-3.79341 -9.871091,-6.49219 -0.0791,-0.0745 -0.15607,-0.14939 -0.23438,-0.22461 -2.91661,-2.80127 -5.24784,-6.14498 -6.57617,-9.64453 -1.54668,-4.07547 -1.69553,-8.31702 -0.5957,-11.73633 z"
         style="color:#000000;font-style:normal;font-variant:normal;font-weight:normal;font-stretch:normal;font-size:medium;line-height:normal;font-family:sans-serif;font-variant-ligatures:normal;font-variant-position:normal;font-variant-caps:normal;font-variant-numeric:normal;font-variant-alternates:normal;font-feature-settings:normal;text-indent:0;text-align:start;text-decoration:none;text-decoration-line:none;text-decoration-style:solid;text-decoration-color:#000000;letter-spacing:normal;word-spacing:normal;text-transform:none;writing-mode:lr-tb;direction:ltr;text-orientation:mixed;dominant-baseline:auto;baseline-shift:baseline;text-anchor:start;white-space:normal;shape-padding:0;clip-rule:nonzero;display:inline;overflow:visible;visibility:visible;opacity:1;isolation:auto;mix-blend-mode:normal;color-interpolation:sRGB;color-interpolation-filters:linearRGB;solid-color:#000000;solid-opacity:1;vector-effect:none;fill:url(#linearGradient1428);fill-opacity:1;fill-rule:nonzero;stroke:none;stroke-width:0.26458332;stroke-linecap:butt;stroke-linejoin:miter;stroke-miterlimit:4;stroke-dasharray:none;stroke-dashoffset:0;stroke-opacity:1;color-rendering:auto;image-rendering:auto;shape-rendering:auto;text-rendering:auto;enable-background:accumulate" />
      <path
         inkscape:connector-curvature="0"
         id="path1316"
         d="m -117.04092,133.70926 -0.26367,0.0117 c 0.12667,2.86601 1.26103,6.49335 3.48437,10.10157 1.90935,3.09802 4.59492,6.14558 7.70703,8.83398 0.0835,0.0722 0.16783,0.14318 0.25195,0.21484 3.05069,2.59814 6.478164,4.85677 10.062504,6.65821 3.248533,1.63107 6.600113,2.88347 10.017579,3.78515 4.323646,1.14416 8.781149,1.73841 13.222656,1.80274 2.922604,0.0438 5.851792,-0.13489 8.804687,-0.53125 5.092861,-0.68498 10.174561,-2.02866 15.212891,-3.52539 1.304474,-0.38758 2.60998,-0.78539 3.912109,-1.18555 6.335895,-1.9471 12.647499,-3.92857 19.03711,-4.95508 0.302114,-0.0485 0.60366,-0.0965 0.90625,-0.14062 6.097988,-0.8906 12.192757,-0.87339 18.2148443,0.0527 1.656087,0.25491 3.308438,0.57966 4.947265,0.97461 4.613264,1.11045 9.132356,2.77168 13.4492187,4.99609 2.798825,1.44197 5.488668,3.11101 8.082031,4.9082 1.995754,1.38302 3.944217,2.84667 5.847656,4.3418 4.36264,3.42914 8.507117,7.03306 12.69336,10.41211 4.229311,3.40137 8.512944,6.58412 13.140625,9.17773 1.996622,1.11816 4.05919,2.12871 6.201172,2.98829 2.825884,1.13505 5.737903,2.00082 8.746093,2.57617 9.367911,1.80117 19.500151,0.62998 29.181641,-2.02344 3.34817,-0.91678 6.646078,-2.00184 9.888668,-3.18359 6.09866,-2.22248 12.13363,-4.80025 18.09571,-7.25196 9.29188,-3.80956 18.50586,-7.3388 27.91406,-8.90625 9.22728,-1.55362 18.20283,-1.2661 27.28711,0.53907 7.41839,1.46414 14.83579,3.99257 22.06054,7.125 1.82409,0.79189 3.64731,1.62616 5.4668,2.49609 9.04347,4.32364 18.00052,9.5233 26.71289,14.51367 4.96105,2.83752 9.84429,5.601 14.64844,8.05664 3.67169,1.88222 7.26108,3.56505 10.6875,5.02539 7.88743,3.36185 14.91348,5.53722 20.35156,6.1582 l 0.0293,-0.26172 c -5.3943,-0.61598 -12.4042,-2.78486 -20.27735,-6.14062 -3.42026,-1.45772 -7.00353,-3.13808 -10.66992,-5.01758 -4.79721,-2.4521 -9.67636,-5.21365 -14.63672,-8.05078 -8.71146,-4.98984 -17.67582,-10.19352 -26.73242,-14.52343 -1.82213,-0.87119 -3.6473,-1.70671 -5.47461,-2.5 -7.23774,-3.13806 -14.67298,-5.67178 -22.11523,-7.14063 -9.11169,-1.81061 -18.1206,-2.09824 -27.38086,-0.53906 -9.44404,1.57341 -18.67702,5.10882 -27.97266,8.91992 v 0.002 c -5.96431,2.45263 -11.9944,5.02692 -18.08398,7.24609 -3.23733,1.17985 -6.529588,2.26332 -9.869138,3.17774 -9.65523,2.64622 -19.75025,3.81 -29.062502,2.01953 -2.991034,-0.57207 -5.884566,-1.43353 -8.695313,-2.5625 -2.13002,-0.85482 -4.183808,-1.85934 -6.171875,-2.9727 -4.607855,-2.5825 -8.879359,-5.75707 -13.103516,-9.1543 -4.181103,-3.3749 -8.325872,-6.97957 -12.695312,-10.41406 -1.906503,-1.49754 -3.860064,-2.96277 -5.861328,-4.34961 -2.60071,-1.80228 -5.299939,-3.47929 -8.111328,-4.92773 -4.3360327,-2.23429 -8.8744247,-3.90033 -13.5078127,-5.01563 -1.646047,-0.39668 -3.305376,-0.72443 -4.96875,-0.98047 -6.0481293,-0.93013 -12.1695723,-0.94704 -18.2929683,-0.0527 -0.303861,0.0443 -0.608778,0.0919 -0.91211,0.14062 -6.415326,1.03064 -12.737424,3.01807 -19.072266,4.96485 -1.301834,0.40006 -2.605016,0.79835 -3.908203,1.18554 -5.033165,1.4952 -10.103193,2.83364 -15.173828,3.51563 -2.940491,0.3947 -5.856525,0.57291 -8.765625,0.5293 -4.420447,-0.064 -8.858067,-0.65647 -13.160156,-1.79493 -3.400286,-0.89715 -6.732982,-2.14292 -9.964844,-3.76562 -3.56555,-1.792 -6.975955,-4.03929 -10.009765,-6.62305 -0.0837,-0.0713 -0.16693,-0.14307 -0.25,-0.21484 -3.09423,-2.67295 -5.76243,-5.70184 -7.6543,-8.77149 -2.20283,-3.57493 -3.32324,-7.16858 -3.44726,-9.97461 z"
         style="color:#000000;font-style:normal;font-variant:normal;font-weight:normal;font-stretch:normal;font-size:medium;line-height:normal;font-family:sans-serif;font-variant-ligatures:normal;font-variant-position:normal;font-variant-caps:normal;font-variant-numeric:normal;font-variant-alternates:normal;font-feature-settings:normal;text-indent:0;text-align:start;text-decoration:none;text-decoration-line:none;text-decoration-style:solid;text-decoration-color:#000000;letter-spacing:normal;word-spacing:normal;text-transform:none;writing-mode:lr-tb;direction:ltr;text-orientation:mixed;dominant-baseline:auto;baseline-shift:baseline;text-anchor:start;white-space:normal;shape-padding:0;clip-rule:nonzero;display:inline;overflow:visible;visibility:visible;opacity:1;isolation:auto;mix-blend-mode:normal;color-interpolation:sRGB;color-interpolation-filters:linearRGB;solid-color:#000000;solid-opacity:1;vector-effect:none;fill:url(#linearGradient1428);fill-opacity:1;fill-rule:nonzero;stroke:none;stroke-width:0.26458332;stroke-linecap:butt;stroke-linejoin:miter;stroke-miterlimit:4;stroke-dasharray:none;stroke-dashoffset:0;stroke-opacity:1;color-rendering:auto;image-rendering:auto;shape-rendering:auto;text-rendering:auto;enable-background:accumulate" />
      <path
         inkscape:connector-curvature="0"
         id="path1318"
         d="m -117.06045,133.64481 -0.22461,0.13867 c 1.36571,2.22621 3.47116,5.18622 6.34765,8.27539 2.47048,2.6526 5.48739,5.3739 8.76953,7.92578 0.0881,0.0685 0.17719,0.13878 0.26563,0.20704 3.208463,2.47545 6.642515,4.78513 10.18164,6.77343 3.20427,1.79837 6.475716,3.3282 9.820312,4.5625 4.235423,1.56696 8.630942,2.67579 13.080078,3.20899 2.929474,0.35275 5.892723,0.46051 8.904297,0.29101 5.191905,-0.29371 10.405052,-1.43174 15.537109,-2.88086 1.328275,-0.37512 2.654095,-0.77182 3.972657,-1.17968 6.416287,-1.98472 12.724522,-4.2342 19.103515,-5.72071 0.301549,-0.0702 0.604203,-0.13831 0.90625,-0.20507 6.0883,-1.3466 12.2046563,-1.96574 18.3437503,-1.59766 1.687914,0.10145 3.380296,0.27952 5.064453,0.53906 4.742735,0.72947 9.4282277,2.10207 13.8574217,4.23633 2.872478,1.3839 5.602453,3.07414 8.19336,4.94727 1.993718,1.44134 3.912063,2.99541 5.757812,4.60156 4.233805,3.6869 8.106945,7.66048 11.974609,11.47851 3.899959,3.83477 7.810528,7.52994 12.128907,10.6875 h 0.002 c 1.862628,1.36089 3.804471,2.62419 5.841797,3.74024 2.688601,1.47403 5.502992,2.68489 8.466801,3.57617 9.24049,2.78962 19.65354,2.22897 29.50586,-0.24805 3.411941,-0.85686 6.761771,-1.93065 10.046871,-3.14453 6.17445,-2.28133 12.21703,-5.0703 18.11719,-7.86133 9.17247,-4.32598 18.14909,-8.70013 27.34961,-11.43554 9.03889,-2.70616 17.96449,-3.86723 27.25781,-3.31836 7.59802,0.43775 15.33018,2.09251 22.87891,4.63476 1.90448,0.6425 3.80596,1.34557 5.69921,2.10157 9.41039,3.75746 18.6212,8.85176 27.20118,14.32226 4.87787,3.10539 9.55252,6.32468 13.98828,9.43164 3.39317,2.38329 6.61771,4.68749 9.59765,6.8711 6.85976,5.02692 12.42258,9.40706 16.09375,12.52344 l 0.17188,-0.20118 c -3.67845,-3.12254 -9.24552,-7.50522 -16.10938,-12.53515 -2.98177,-2.18495 -6.20727,-4.49093 -9.60156,-6.875 -4.43698,-3.10782 -9.1149,-6.32877 -13.99805,-9.43751 -8.58956,-5.47661 -17.81443,-10.57974 -27.24609,-14.3457 -1.89753,-0.7577 -3.80364,-1.46136 -5.71289,-2.10547 -7.56758,-2.5486 -15.32129,-4.20907 -22.94727,-4.64843 -9.32521,-0.55075 -18.28479,0.6142 -27.3496,3.32812 -9.2293,2.74397 -18.21626,7.12614 -27.38672,11.45117 -5.89861,2.79029 -11.93436,5.57507 -18.09571,7.85156 -3.2778,1.21119 -6.61852,2.28066 -10.019531,3.13477 -9.8187,2.46857 -20.18682,3.02283 -29.36523,0.25195 -2.944727,-0.88554 -5.742084,-2.08869 -8.416018,-3.55468 -2.025698,-1.10968 -3.959607,-2.36745 -5.814453,-3.72266 -4.300471,-3.14443 -8.202171,-6.82977 -12.099657,-10.66211 -3.865187,-3.81559 -7.741789,-7.79398 -11.986328,-11.49023 -1.850587,-1.61036 -3.77587,-3.16634 -5.777343,-4.61329 -2.601136,-1.88051 -5.34307,-3.58062 -8.232422,-4.97265 -4.454994,-2.14669 -9.1674727,-3.52475 -13.9335937,-4.25781 -1.692505,-0.26083 -3.392021,-0.44105 -5.087891,-0.54297 -6.167241,-0.36976 -12.3079073,0.25254 -18.4160153,1.60351 -0.303047,0.067 -0.605716,0.13463 -0.908203,0.20508 -6.398879,1.49114 -12.713911,3.74406 -19.123047,5.72656 -1.316974,0.40737 -2.639178,0.8014 -3.964844,1.17578 -5.121839,1.44624 -10.319065,2.58095 -15.482422,2.87305 -2.995574,0.1686 -5.942626,0.0619 -8.857422,-0.28906 -4.426556,-0.53049 -8.801893,-1.63494 -13.019531,-3.19531 -3.330488,-1.22911 -6.590058,-2.75281 -9.783203,-4.54493 -3.526545,-1.98123 -6.949234,-4.28559 -10.148436,-6.7539 -0.0882,-0.0681 -0.17585,-0.13483 -0.26367,-0.20313 -3.27221,-2.54415 -6.28149,-5.25843 -8.74024,-7.89843 -2.86292,-3.07461 -4.95942,-6.02239 -6.3164,-8.23438 z"
         style="color:#000000;font-style:normal;font-variant:normal;font-weight:normal;font-stretch:normal;font-size:medium;line-height:normal;font-family:sans-serif;font-variant-ligatures:normal;font-variant-position:normal;font-variant-caps:normal;font-variant-numeric:normal;font-variant-alternates:normal;font-feature-settings:normal;text-indent:0;text-align:start;text-decoration:none;text-decoration-line:none;text-decoration-style:solid;text-decoration-color:#000000;letter-spacing:normal;word-spacing:normal;text-transform:none;writing-mode:lr-tb;direction:ltr;text-orientation:mixed;dominant-baseline:auto;baseline-shift:baseline;text-anchor:start;white-space:normal;shape-padding:0;clip-rule:nonzero;display:inline;overflow:visible;visibility:visible;opacity:1;isolation:auto;mix-blend-mode:normal;color-interpolation:sRGB;color-interpolation-filters:linearRGB;solid-color:#000000;solid-opacity:1;vector-effect:none;fill:url(#linearGradient1428);fill-opacity:1;fill-rule:nonzero;stroke:none;stroke-width:0.26458332;stroke-linecap:butt;stroke-linejoin:miter;stroke-miterlimit:4;stroke-dasharray:none;stroke-dashoffset:0;stroke-opacity:1;color-rendering:auto;image-rendering:auto;shape-rendering:auto;text-rendering:auto;enable-background:accumulate" />
      <path
         inkscape:connector-curvature="0"
         id="path1320"
         d="m -117.10342,133.60184 -0.13867,0.22461 c 2.58898,1.59702 5.66241,3.89213 9.18945,6.46485 3.02932,2.20927 6.38011,4.60755 9.83203,7.02343 0.09262,0.0648 0.184591,0.1285 0.277343,0.19336 3.366041,2.35325 6.806647,4.71568 10.300781,6.89063 3.160217,1.96546 6.351275,3.77513 9.623047,5.34179 4.147309,1.98944 8.480879,3.6111 12.9375,4.61329 2.936227,0.66177 5.933709,1.05761 9.003907,1.11523 5.290752,0.098 10.637548,-0.83686 15.863281,-2.23828 1.352062,-0.36265 2.696273,-0.75632 4.03125,-1.17188 6.496601,-2.02231 12.803592,-4.53943 19.171875,-6.48632 0.300976,-0.092 0.600843,-0.1821 0.902344,-0.27149 h 0.002 c 6.078464,-1.80296 12.2144933,-3.05626 18.4707033,-3.24609 1.719765,-0.052 3.452123,-0.0207 5.18164,0.10351 4.8722977,0.3487 9.7280017,1.43226 14.2695317,3.47657 2.946151,1.32596 5.712245,3.03729 8.300781,4.98632 1.991745,1.49965 3.883717,3.14229 5.671875,4.85938 4.105199,3.94451 7.706526,8.28808 11.255859,12.54492 3.570866,4.268 7.110123,8.47397 11.119141,12.19531 1.728611,1.60357 3.549884,3.11973 5.482422,4.49219 2.551227,1.81299 5.270219,3.37075 8.189448,4.57813 9.11231,3.77854 19.80505,3.82778 29.828131,1.52734 3.47569,-0.79689 6.87748,-1.85751 10.20508,-3.10351 6.25018,-2.34018 12.30057,-5.33825 18.13867,-8.46876 9.05285,-4.84264 17.79031,-10.06447 26.7832,-13.96875 8.85028,-3.85945 17.72592,-6.47079 27.22852,-7.17773 h 0.002 c 7.77801,-0.58819 15.82461,0.19784 23.69727,2.15039 1.98489,0.49323 3.96462,1.0629 5.93164,1.70508 9.77728,3.19184 19.24137,8.18252 27.68945,14.13281 4.79497,3.37303 9.26189,7.04737 13.33008,10.80469 3.11532,2.88365 5.97683,5.80738 8.51172,8.71289 5.83527,6.68881 9.93631,13.26926 11.86133,18.86523 l 0.25,-0.0859 c -1.94185,-5.64489 -6.06072,-12.24584 -11.91211,-18.95313 -2.54192,-2.91357 -5.40977,-5.84502 -8.53125,-8.73437 -4.07597,-3.7645 -8.55177,-7.44562 -13.35742,-10.82618 -8.46719,-5.96374 -17.95303,-10.96651 -27.75977,-14.16797 -1.97294,-0.6441 -3.95803,-1.21614 -5.94922,-1.71093 -7.89745,-1.9587 -15.97385,-2.74681 -23.7832,-2.15625 -9.53852,0.70961 -18.44485,3.33133 -27.31446,7.19922 -9.01448,3.91365 -17.7572,9.13782 -26.80273,13.97656 -5.83302,3.12778 -11.87229,6.12127 -18.10547,8.45508 -3.31832,1.24253 -6.71134,2.29988 -10.17383,3.09375 -9.982261,2.29108 -20.620641,2.23711 -29.666011,-1.51367 h -0.002 c -2.89858,-1.19884 -5.599504,-2.7458 -8.136714,-4.54883 -1.921512,-1.36463 -3.733436,-2.8736 -5.455078,-4.47071 -3.992695,-3.70619 -7.525476,-7.90269 -11.095704,-12.16992 v -0.002 c -3.548719,-4.2561 -7.15635,-8.60664 -11.27539,-12.56445 -1.794572,-1.72325 -3.693692,-3.37378 -5.695313,-4.88086 -2.601476,-1.95877 -5.386221,-3.68015 -8.353515,-5.01563 -4.573949,-2.05889 -9.458657,-3.1494 -14.3574217,-3.5 -1.738933,-0.12489 -3.480641,-0.15574 -5.208985,-0.10351 -6.286248,0.19074 -12.4460963,1.44859 -18.5390623,3.25586 -0.302237,0.0896 -0.6046,0.18125 -0.90625,0.27343 -6.382523,1.95125 -12.688366,4.46809 -19.171875,6.48633 -1.332129,0.41468 -2.675277,0.80637 -4.023437,1.16797 -5.210563,1.39736 -10.532787,2.32781 -15.789063,2.23047 -3.050715,-0.0573 -6.028605,-0.45112 -8.949219,-1.10937 -4.432809,-0.99684 -8.747778,-2.61115 -12.880859,-4.59375 -3.260642,-1.56133 -6.443435,-3.3664 -9.597656,-5.32813 -3.487318,-2.1707 -6.924266,-4.53043 -10.289063,-6.88281 -0.09272,-0.0648 -0.184762,-0.12855 -0.277344,-0.19336 -3.45043,-2.41485 -6.80021,-4.81128 -9.82812,-7.01953 -3.52563,-2.57169 -6.60132,-4.86923 -9.20704,-6.47657 z"
         style="color:#000000;font-style:normal;font-variant:normal;font-weight:normal;font-stretch:normal;font-size:medium;line-height:normal;font-family:sans-serif;font-variant-ligatures:normal;font-variant-position:normal;font-variant-caps:normal;font-variant-numeric:normal;font-variant-alternates:normal;font-feature-settings:normal;text-indent:0;text-align:start;text-decoration:none;text-decoration-line:none;text-decoration-style:solid;text-decoration-color:#000000;letter-spacing:normal;word-spacing:normal;text-transform:none;writing-mode:lr-tb;direction:ltr;text-orientation:mixed;dominant-baseline:auto;baseline-shift:baseline;text-anchor:start;white-space:normal;shape-padding:0;clip-rule:nonzero;display:inline;overflow:visible;visibility:visible;opacity:1;isolation:auto;mix-blend-mode:normal;color-interpolation:sRGB;color-interpolation-filters:linearRGB;solid-color:#000000;solid-opacity:1;vector-effect:none;fill:url(#linearGradient1428);fill-opacity:1;fill-rule:nonzero;stroke:none;stroke-width:0.26458332;stroke-linecap:butt;stroke-linejoin:miter;stroke-miterlimit:4;stroke-dasharray:none;stroke-dashoffset:0;stroke-opacity:1;color-rendering:auto;image-rendering:auto;shape-rendering:auto;text-rendering:auto;enable-background:accumulate" />
      <path
         inkscape:connector-curvature="0"
         id="path1322"
         d="m -117.14053,133.58622 -0.0645,0.25586 c 3.82084,0.98204 7.86155,2.61789 12.03906,4.67773 3.58803,1.76897 7.269049,3.84261 10.890626,6.12305 0.09716,0.0612 0.193956,0.12211 0.291016,0.18359 3.523515,2.23154 6.970523,4.6464 10.419922,7.00781 3.116395,2.13241 6.228641,4.22036 9.427734,6.11914 4.0594,2.41168 8.329059,4.54634 12.792969,6.01758 2.942823,0.97084 5.974831,1.6545 9.103515,1.93946 5.389275,0.49004 10.868145,-0.24206 16.1875,-1.59571 1.375831,-0.35015 2.740417,-0.7408 4.091793,-1.16406 6.576839,-2.0599 12.880902,-4.84434 19.238281,-7.25195 0.300395,-0.11374 0.601398,-0.22586 0.902344,-0.33789 6.0683873,-2.25964 12.2261233,-4.14884 18.5996103,-4.89649 1.751657,-0.20534 3.5258487,-0.32099 5.3007807,-0.33203 5.002024,-0.0319 10.023844,0.76616 14.677734,2.7207 3.019859,1.26816 5.825859,2.99852 8.412109,5.02344 1.989835,1.55794 3.851354,3.29116 5.582032,5.11914 3.976847,4.20203 7.309719,8.91577 10.541015,13.61133 3.242075,4.70116 6.407767,9.41621 10.107422,13.70117 1.594596,1.8462 3.295406,3.61731 5.123047,5.2461 2.41377,2.15189 5.035722,4.05456 7.910152,5.57812 8.98317,4.76765 19.9547,5.42841 30.148438,3.30469 3.53943,-0.73687 6.99713,-1.78633 10.36719,-3.06445 6.32586,-2.39904 12.38038,-5.60801 18.15625,-9.07813 8.93294,-5.35949 17.43382,-11.42808 26.21875,-16.50195 8.6611,-5.01331 17.4888,-9.07468 27.20117,-11.03711 7.95856,-1.6139 16.32085,-1.69726 24.51758,-0.33399 2.06534,0.34408 4.12326,0.78014 6.16406,1.3086 10.1443,2.62674 19.85908,7.51354 28.17578,13.94336 4.71236,3.64053 8.974,7.77044 12.67578,12.17773 2.83844,3.38378 5.33793,6.92709 7.42969,10.55469 4.8153,8.35108 7.46485,17.13368 7.65625,25.22852 l 0.26367,-0.008 c -0.19265,-8.14798 -2.857,-16.96929 -7.6914,-25.35351 -2.10008,-3.64202 -4.60734,-7.19694 -7.45508,-10.5918 -3.71375,-4.42154 -7.98891,-8.56427 -12.7168,-12.2168 -8.34426,-6.45112 -18.08978,-11.35381 -28.27148,-13.99023 -2.04832,-0.53041 -4.11444,-0.9691 -6.1875,-1.31446 -8.2272,-1.36834 -16.6211,-1.28282 -24.61328,0.3379 -9.75133,1.9703 -18.60631,6.04509 -27.28125,11.0664 -8.80003,5.08259 -17.29983,11.15166 -26.22071,16.50391 -5.7676,3.46515 -11.81017,6.66549 -18.11523,9.05664 -3.35886,1.27388 -6.80216,2.31907 -10.32617,3.05274 -10.145878,2.11374 -21.059408,1.45124 -29.972658,-3.2793 -2.85269,-1.51204 -5.45684,-3.40089 -7.857421,-5.54102 -1.817431,-1.6195 -3.511167,-3.38145 -5.099609,-5.22052 -3.68568,-4.26878 -6.844571,-8.97672 -10.087891,-13.67969 -3.232568,-4.69741 -6.572385,-9.4224 -10.566406,-13.64258 -1.738446,-1.83619 -3.609625,-3.5773 -5.611328,-5.14453 -2.601732,-2.03704 -5.429406,-3.78175 -8.474609,-5.06055 -4.692878,-1.97091 -9.750009,-2.77229 -14.78125,-2.74023 -1.785306,0.0111 -3.5673537,0.12757 -5.3281247,0.33398 -6.405094,0.75136 -12.585998,2.64692 -18.6640633,4.91016 -0.301436,0.11222 -0.601522,0.22594 -0.902344,0.33984 -6.366363,2.41102 -12.664698,5.19211 -19.222656,7.2461 -1.347301,0.42198 -2.709408,0.81132 -4.080078,1.16015 -5.299342,1.34856 -10.748139,2.07432 -16.097656,1.58789 -3.105992,-0.28288 -6.116383,-0.96225 -9.042969,-1.92773 -4.439257,-1.46312 -8.691921,-3.58906 -12.740234,-5.99414 h -0.002 c -3.190656,-1.89378 -6.297045,-3.97788 -9.41211,-6.10938 -3.447833,-2.36034 -6.897246,-4.77576 -10.427734,-7.01171 -0.09727,-0.0616 -0.195629,-0.12424 -0.292969,-0.18555 -3.628787,-2.28498 -7.31685,-4.36322 -10.91406,-6.13672 -4.18839,-2.0652 -8.24595,-3.70684 -12.0918,-4.69531 z"
         style="color:#000000;font-style:normal;font-variant:normal;font-weight:normal;font-stretch:normal;font-size:medium;line-height:normal;font-family:sans-serif;font-variant-ligatures:normal;font-variant-position:normal;font-variant-caps:normal;font-variant-numeric:normal;font-variant-alternates:normal;font-feature-settings:normal;text-indent:0;text-align:start;text-decoration:none;text-decoration-line:none;text-decoration-style:solid;text-decoration-color:#000000;letter-spacing:normal;word-spacing:normal;text-transform:none;writing-mode:lr-tb;direction:ltr;text-orientation:mixed;dominant-baseline:auto;baseline-shift:baseline;text-anchor:start;white-space:normal;shape-padding:0;clip-rule:nonzero;display:inline;overflow:visible;visibility:visible;opacity:1;isolation:auto;mix-blend-mode:normal;color-interpolation:sRGB;color-interpolation-filters:linearRGB;solid-color:#000000;solid-opacity:1;vector-effect:none;fill:url(#linearGradient1428);fill-opacity:1;fill-rule:nonzero;stroke:none;stroke-width:0.26458332;stroke-linecap:butt;stroke-linejoin:miter;stroke-miterlimit:4;stroke-dasharray:none;stroke-dashoffset:0;stroke-opacity:1;color-rendering:auto;image-rendering:auto;shape-rendering:auto;text-rendering:auto;enable-background:accumulate" />
    </g>
  </g>
</svg>
